<svg version="1.1" id="Layer_1" xmlns="http://www.w3.org/2000/svg" xmlns:xlink="http://www.w3.org/1999/xlink" x="0px" y="0px"
	 width="100%" viewBox="0 0 512 512" enable-background="new 0 0 512 512" xml:space="preserve">
<path fill="#68BD45" opacity="1.000000" stroke="none" 
	d="
M0.999999,270.000000 
	C1.000000,261.312439 1.000000,252.624863 1.358880,243.683929 
	C3.353919,239.224945 4.532393,234.764664 6.705889,230.857986 
	C15.856083,214.411362 25.333254,198.147034 34.633766,181.783585 
	C44.581989,164.280548 54.405968,146.706711 64.394234,129.226669 
	C75.680191,109.475578 86.870575,89.664192 98.535576,70.137718 
	C104.393005,60.332775 108.710419,49.401119 117.768005,41.728260 
	C128.808502,32.375633 140.899628,25.916441 155.956680,25.945240 
	C222.933884,26.073357 289.911469,26.002050 356.888916,26.000072 
	C377.263702,25.999470 392.783203,35.395111 404.074677,51.644199 
	C410.914520,61.487091 416.441803,72.242043 422.647888,82.737877 
	C439.375793,66.788605 447.541504,45.672546 458.426208,25.872681 
	C465.865143,47.435242 472.738647,68.850494 479.130310,90.408600 
	C490.941711,130.246765 499.500580,170.688217 501.129150,212.396683 
	C501.302551,216.837646 502.856079,221.329849 504.365295,225.587006 
	C506.260010,230.931458 508.729279,236.076096 511.060486,241.257538 
	C511.386627,241.982483 512.338013,242.426132 513.000000,243.000000 
	C513.000000,251.687561 513.000000,260.375122 512.641113,269.316101 
	C507.777130,278.915039 503.698975,288.496857 498.682068,297.559021 
	C486.636780,319.316528 474.220306,340.870026 461.826569,362.432831 
	C443.156342,394.915527 424.708435,427.533234 405.514801,459.705048 
	C394.868958,477.549286 378.104980,487.589539 357.461517,487.778503 
	C292.175262,488.376129 226.880112,488.018707 161.588470,487.956055 
	C157.158539,487.951782 152.670303,487.675232 148.310165,486.932526 
	C132.647110,484.264587 119.834938,476.040894 110.629562,463.627502 
	C102.981789,453.314484 97.463516,441.417511 91.052711,430.193207 
	C82.857140,415.844086 74.748764,401.445160 66.536690,387.105530 
	C56.700912,369.930603 46.808617,352.787994 36.915707,335.645874 
	C29.472534,322.748535 21.820749,309.968048 14.585461,296.955597 
	C9.936609,288.594757 3.801629,280.835114 2.794288,270.787384 
	C2.762289,270.468170 1.623060,270.259949 0.999999,270.000000 
M400.858337,117.364159 
	C372.503906,138.252411 341.575470,153.991638 306.575745,159.217606 
	C281.634094,162.941742 256.275421,163.926010 231.086411,165.925903 
	C206.136337,167.906815 182.253128,173.454361 160.187653,185.741852 
	C110.988739,213.138947 85.768372,267.089386 98.060928,319.734528 
	C103.098373,341.308380 113.844208,359.201294 134.344696,369.671021 
	C136.512207,370.777954 139.580902,371.229858 141.935410,370.691254 
	C168.603302,364.590637 195.242737,358.358612 221.832779,351.926117 
	C274.221039,339.252655 321.628693,316.682831 362.233765,280.734772 
	C392.642242,253.813812 417.955688,223.121857 433.171906,184.946442 
	C433.485535,184.159546 434.080963,183.484985 434.544952,182.758011 
	C434.053833,188.184814 432.901337,193.343155 431.340271,198.374725 
	C416.360443,246.656342 387.550293,285.736237 350.664642,319.436310 
	C317.692047,349.561310 278.991089,368.900757 236.304138,381.157867 
	C214.144730,387.520752 192.320190,395.049835 170.344376,402.052094 
	C170.435974,402.541443 170.527573,403.030792 170.619156,403.520142 
	C175.576675,403.042145 180.534225,402.154144 185.491714,402.154510 
	C212.133423,402.156311 238.782791,402.028809 265.414978,402.611237 
	C301.566681,403.401794 337.623993,403.634827 373.255920,396.040833 
	C426.264648,384.743530 462.419678,354.195129 479.819855,302.506409 
	C492.286713,265.472504 492.680603,227.366699 488.542053,189.020172 
	C485.616302,161.911148 480.206665,135.238342 472.982727,108.962891 
	C467.951660,90.663574 462.405701,72.505836 457.089722,54.284859 
	C442.874481,79.597977 423.951447,99.850815 400.858337,117.364159 
M99.360107,395.088318 
	C95.444687,402.926727 95.654289,410.570709 100.957977,417.656433 
	C105.495537,423.718628 111.816017,426.429504 119.332870,425.536865 
	C128.909210,424.399689 136.140060,417.064362 137.104523,407.990753 
	C138.158432,398.075623 133.055542,389.422821 124.186218,386.085510 
	C115.117355,382.673126 106.014946,385.802094 99.360107,395.088318 
z"/>
<path fill="#000000" opacity="1.000000" stroke="none" 
	d="
M0.999999,270.468658 
	C1.623060,270.259949 2.762289,270.468170 2.794288,270.787384 
	C3.801629,280.835114 9.936609,288.594757 14.585461,296.955597 
	C21.820749,309.968048 29.472534,322.748535 36.915707,335.645874 
	C46.808617,352.787994 56.700912,369.930603 66.536690,387.105530 
	C74.748764,401.445160 82.857140,415.844086 91.052711,430.193207 
	C97.463516,441.417511 102.981789,453.314484 110.629562,463.627502 
	C119.834938,476.040894 132.647110,484.264587 148.310165,486.932526 
	C152.670303,487.675232 157.158539,487.951782 161.588470,487.956055 
	C226.880112,488.018707 292.175262,488.376129 357.461517,487.778503 
	C378.104980,487.589539 394.868958,477.549286 405.514801,459.705048 
	C424.708435,427.533234 443.156342,394.915527 461.826569,362.432831 
	C474.220306,340.870026 486.636780,319.316528 498.682068,297.559021 
	C503.698975,288.496857 507.777130,278.915039 512.641113,269.784729 
	C513.000000,350.964478 513.000000,431.928955 513.000000,512.946716 
	C342.443726,512.946716 171.887421,512.946716 1.000000,512.946716 
	C1.000000,432.312744 1.000000,351.625031 0.999999,270.468658 
z"/>
<path fill="#000000" opacity="1.000000" stroke="none" 
	d="
M513.000000,242.531342 
	C512.338013,242.426132 511.386627,241.982483 511.060486,241.257538 
	C508.729279,236.076096 506.260010,230.931458 504.365295,225.587006 
	C502.856079,221.329849 501.302551,216.837646 501.129150,212.396683 
	C499.500580,170.688217 490.941711,130.246765 479.130310,90.408600 
	C472.738647,68.850494 465.865143,47.435242 458.426208,25.872681 
	C447.541504,45.672546 439.375793,66.788605 422.647888,82.737877 
	C416.441803,72.242043 410.914520,61.487091 404.074677,51.644199 
	C392.783203,35.395111 377.263702,25.999470 356.888916,26.000072 
	C289.911469,26.002050 222.933884,26.073357 155.956680,25.945240 
	C140.899628,25.916441 128.808502,32.375633 117.768005,41.728260 
	C108.710419,49.401119 104.393005,60.332775 98.535576,70.137718 
	C86.870575,89.664192 75.680191,109.475578 64.394234,129.226669 
	C54.405968,146.706711 44.581989,164.280548 34.633766,181.783585 
	C25.333254,198.147034 15.856083,214.411362 6.705889,230.857986 
	C4.532393,234.764664 3.353919,239.224945 1.358880,243.215286 
	C1.000000,162.368759 1.000000,81.737511 1.000000,1.106264 
	C1.131172,1.070843 1.262343,1.004373 1.393517,1.004370 
	C171.818634,0.999976 342.243774,1.000000 513.000000,1.000000 
	C513.000000,81.353928 513.000000,161.708298 513.000000,242.531342 
z"/>
<path fill="#FFFFFF" opacity="1.000000" stroke="none" 
	d="
M401.148804,117.156769 
	C423.951447,99.850815 442.874481,79.597977 457.089722,54.284859 
	C462.405701,72.505836 467.951660,90.663574 472.982727,108.962891 
	C480.206665,135.238342 485.616302,161.911148 488.542053,189.020172 
	C492.680603,227.366699 492.286713,265.472504 479.819855,302.506409 
	C462.419678,354.195129 426.264648,384.743530 373.255920,396.040833 
	C337.623993,403.634827 301.566681,403.401794 265.414978,402.611237 
	C238.782791,402.028809 212.133423,402.156311 185.491714,402.154510 
	C180.534225,402.154144 175.576675,403.042145 170.619156,403.520142 
	C170.527573,403.030792 170.435974,402.541443 170.344376,402.052094 
	C192.320190,395.049835 214.144730,387.520752 236.304138,381.157867 
	C278.991089,368.900757 317.692047,349.561310 350.664642,319.436310 
	C387.550293,285.736237 416.360443,246.656342 431.340271,198.374725 
	C432.901337,193.343155 434.053833,188.184814 434.544952,182.758011 
	C434.080963,183.484985 433.485535,184.159546 433.171906,184.946442 
	C417.955688,223.121857 392.642242,253.813812 362.233765,280.734772 
	C321.628693,316.682831 274.221039,339.252655 221.832779,351.926117 
	C195.242737,358.358612 168.603302,364.590637 141.935410,370.691254 
	C139.580902,371.229858 136.512207,370.777954 134.344696,369.671021 
	C113.844208,359.201294 103.098373,341.308380 98.060928,319.734528 
	C85.768372,267.089386 110.988739,213.138947 160.187653,185.741852 
	C182.253128,173.454361 206.136337,167.906815 231.086411,165.925903 
	C256.275421,163.926010 281.634094,162.941742 306.575745,159.217606 
	C341.575470,153.991638 372.503906,138.252411 401.148804,117.156769 
z"/>
<path fill="#FDFEFD" opacity="1.000000" stroke="none" 
	d="
M99.575592,394.779846 
	C106.014946,385.802094 115.117355,382.673126 124.186218,386.085510 
	C133.055542,389.422821 138.158432,398.075623 137.104523,407.990753 
	C136.140060,417.064362 128.909210,424.399689 119.332870,425.536865 
	C111.816017,426.429504 105.495537,423.718628 100.957977,417.656433 
	C95.654289,410.570709 95.444687,402.926727 99.575592,394.779846 
z"/>
</svg>