<svg xmlns="http://www.w3.org/2000/svg" viewBox="0 0 256 256" role="img" aria-label="Spring logo">
  <rect width="256" height="256" rx="56" fill="#6DB33F"/>
  <path d="M182 72c-18-18-44-30-73-30-24 0-46 8-63 22 17 11 33 24 46 40 12-10 28-17 45-17 23 0 43 10 57 26 10 11 18 24 24 39 15-10 28-22 39-36-19-23-45-43-75-44z" fill="#ffffff" opacity="0.95"/>
  <path d="M74 176c15 16 35 24 58 24 25 0 46-10 63-28 10-10 19-22 26-37-12-6-24-10-37-10-26 0-50 10-68 31-10 12-19 25-28 38-3 6-8 14-14 22-4 5-8 10-14 13-5-6-9-12-13-19 2-6 5-13 8-18 5-8 9-15 14-22 4-6 8-11 13-14z" fill="#ffffff" opacity="0.96"/>
</svg>
